<?xml version="1.0" standalone="no"?>
<!DOCTYPE svg PUBLIC "-//W3C//DTD SVG 20010904//EN"
 "http://www.w3.org/TR/2001/REC-SVG-20010904/DTD/svg10.dtd">
<svg version="1.0" xmlns="http://www.w3.org/2000/svg"
 width="2083.000000pt" height="310.000000pt" viewBox="0 0 2083.000000 310.000000"
 preserveAspectRatio="xMidYMid meet">

<g transform="translate(0.000000,310.000000) scale(0.100000,-0.100000)"
fill="#000000" stroke="none">
<path d="M4325 2431 c-145 -24 -249 -76 -335 -168 -113 -121 -159 -254 -146
-425 15 -196 90 -331 231 -414 60 -35 197 -89 345 -136 229 -74 330 -117 380
-164 71 -66 95 -122 95 -219 0 -50 -7 -99 -18 -130 -76 -221 -404 -305 -659
-168 -120 64 -192 166 -225 317 -21 98 -23 99 -118 85 -44 -6 -84 -13 -89 -16
-18 -12 2 -157 34 -248 58 -165 120 -249 237 -326 213 -139 503 -154 738 -39
121 59 190 134 260 283 54 112 67 227 46 387 -15 111 -44 171 -126 259 -98
103 -152 130 -450 226 -132 42 -272 92 -310 109 -122 56 -173 141 -163 269 11
139 111 238 277 273 86 18 144 18 228 -2 120 -27 187 -80 247 -197 23 -44 36
-82 36 -107 0 -60 20 -73 104 -68 39 3 82 10 95 17 22 12 23 17 18 82 -15 179
-149 377 -307 452 -121 57 -307 87 -425 68z"/>
<path d="M5914 2393 c-23 -4 -4 54 -430 -1280 -130 -408 -234 -749 -231 -757
5 -13 25 -16 114 -16 l108 0 85 300 85 300 95 0 c52 0 219 -3 371 -7 l277 -6
51 -171 c28 -94 68 -225 89 -291 l38 -120 107 -3 c104 -3 155 8 142 29 -4 5
-159 463 -345 1017 l-338 1007 -98 1 c-55 1 -108 0 -120 -3z m240 -720 c75
-248 136 -458 136 -466 0 -23 -45 -27 -274 -27 -230 0 -286 5 -286 26 0 8 40
143 89 302 76 245 112 371 173 607 7 28 12 35 18 25 5 -8 69 -218 144 -467z"/>
<path d="M7000 1370 l0 -1030 110 0 110 0 0 358 0 357 128 150 c70 82 135 151
144 153 18 4 56 -59 408 -665 l205 -353 106 0 c59 0 121 3 138 6 l31 7 -32 56
c-17 31 -152 256 -299 501 -295 492 -372 631 -367 665 2 18 502 624 661 803
l20 22 -149 0 -150 0 -414 -503 -415 -503 -9 503 -9 503 -108 0 -109 0 0
-1030z"/>
<path d="M8600 1370 l0 -1030 620 0 620 0 0 120 0 120 -510 0 -510 0 0 350 0
350 460 0 460 0 0 120 0 120 -460 0 -460 0 0 320 0 320 490 0 490 0 0 120 0
120 -600 0 -600 0 0 -1030z"/>
<path d="M10040 2280 l0 -120 280 0 280 0 0 -910 0 -910 110 0 110 0 0 910 0
910 280 0 280 0 0 120 0 120 -670 0 -670 0 0 -120z"/>
<path d="M11600 1370 l0 -1030 110 0 110 0 0 490 0 490 440 0 440 0 0 -490 0
-490 110 0 110 0 0 1030 0 1030 -110 0 -110 0 0 -420 0 -420 -440 0 -440 0 0
420 0 420 -110 0 -110 0 0 -1030z"/>
</g>
</svg>
